<?xml version="1.0" encoding="UTF-8"?>
<!DOCTYPE svg PUBLIC "-//W3C//DTD SVG 1.1//EN"
    "http://www.w3.org/Graphics/SVG/1.1/DTD/svg11.dtd">
<svg xmlns="http://www.w3.org/2000/svg" xmlns:xlink="http://www.w3.org/1999/xlink" version="1.1" width="512.0" height="512.0" font-size="1" viewBox="0 0 512 512" stroke="rgb(0,0,0)" stroke-opacity="1"><g><g fill="rgb(0,0,0)" fill-opacity="0.0"><g stroke="rgb(0,0,0)" stroke-opacity="1.0" stroke-width="1.9972531513363116" stroke-linecap="butt" stroke-linejoin="miter" font-size="1.0em" stroke-miterlimit="10.0"><path d="M 344.11380588379683,367.80935327731254 l 48.89164944001342,-150.47302458687312 l -127.99999999999999,-92.99744358468615 l -127.99999999999997,92.99744358468618 l 48.89164944001347,150.4730245868731 l 158.21670111997307,-8.782791223181545e-15 l 48.89164944001345,-150.4730245868731 Z" /><path d="M 322.8854381999831,343.7759310090093 l 48.89164944001342,-150.47302458687312 l -158.21670111997307,2.6348373669544632e-14 l -48.89164944001343,150.47302458687312 l 158.21670111997307,-8.782791223181545e-15 l 48.89164944001345,-150.4730245868731 Z" /><path d="M 311.14343220664364,287.3485467889319 l 48.89164944001342,-150.47302458687312 l -158.21670111997307,2.6348373669544632e-14 l 48.89164944001347,150.4730245868731 l -48.89164944001343,150.47302458687312 l 158.21670111997307,-8.782791223181545e-15 l -48.89164944001345,-150.4730245868731 l 48.89164944001345,-150.4730245868731 Z" /><path d="M 377.4778007466487,308.901889664752 l 48.89164944001342,-150.47302458687312 l -158.21670111997307,2.6348373669544632e-14 l -127.99999999999997,92.99744358468618 l -48.89164944001343,150.47302458687312 l 158.21670111997307,-8.782791223181545e-15 l 127.99999999999999,-92.99744358468618 l 48.89164944001345,-150.4730245868731 Z" /><path d="M 463.10835055998655,406.47302458687307 l 48.89164944001342,-150.47302458687312 l -48.891649440013495,-150.4730245868731 l -127.99999999999999,-92.99744358468615 l -158.21670111997307,2.6348373669544632e-14 l -127.99999999999997,92.99744358468618 l -48.89164944001343,150.47302458687312 l 48.89164944001347,150.4730245868731 l 127.99999999999999,92.99744358468617 l 158.21670111997307,-8.782791223181545e-15 l 127.99999999999999,-92.99744358468618 l 48.89164944001345,-150.4730245868731 Z" /></g></g></g></svg>